<svg width="125" height="125" viewBox="0 0 125 125" fill="none" xmlns="http://www.w3.org/2000/svg">
<path fill-rule="evenodd" clip-rule="evenodd" d="M62.5 125C97.0179 125 125 97.0179 125 62.5C125 27.9821 97.0179 0 62.5 0C27.9821 0 0 27.9821 0 62.5C0 97.0179 27.9821 125 62.5 125Z" fill="#4F6CFB"/>
<path d="M46 47H52L56 43H68L72 47H78C79.0609 47 80.0783 47.4214 80.8284 48.1716C81.5786 48.9217 82 49.9391 82 51V75C82 76.0609 81.5786 77.0783 80.8284 77.8284C80.0783 78.5786 79.0609 79 78 79H46C44.9391 79 43.9217 78.5786 43.1716 77.8284C42.4214 77.0783 42 76.0609 42 75V51C42 49.9391 42.4214 48.9217 43.1716 48.1716C43.9217 47.4214 44.9391 47 46 47ZM62 53C59.3478 53 56.8043 54.0536 54.9289 55.9289C53.0536 57.8043 52 60.3478 52 63C52 65.6522 53.0536 68.1957 54.9289 70.0711C56.8043 71.9464 59.3478 73 62 73C64.6522 73 67.1957 71.9464 69.0711 70.0711C70.9464 68.1957 72 65.6522 72 63C72 60.3478 70.9464 57.8043 69.0711 55.9289C67.1957 54.0536 64.6522 53 62 53ZM62 57C63.5913 57 65.1174 57.6321 66.2426 58.7574C67.3679 59.8826 68 61.4087 68 63C68 64.5913 67.3679 66.1174 66.2426 67.2426C65.1174 68.3679 63.5913 69 62 69C60.4087 69 58.8826 68.3679 57.7574 67.2426C56.6321 66.1174 56 64.5913 56 63C56 61.4087 56.6321 59.8826 57.7574 58.7574C58.8826 57.6321 60.4087 57 62 57Z" fill="white"/>
</svg>
